-32 -42 -20 1 1 LH_Vis_1
-30 -32 -18 1 1 LH_Vis_2
-36 -62 -16 1 1 LH_Vis_3
-24 -54 -8 1 1 LH_Vis_4
-24 -72 -10 1 1 LH_Vis_5
-36 -82 -16 1 1 LH_Vis_6
-18 -38 -12 1 1 LH_Vis_7
-46 -70 -8 1 1 LH_Vis_8
-16 -86 -16 1 1 LH_Vis_9
-12 -62 -4 1 1 LH_Vis_10
-6 -76 -6 1 1 LH_Vis_11
-24 -96 -12 1 1 LH_Vis_12
-14 -44 -6 1 1 LH_Vis_13
-42 -86 -4 1 1 LH_Vis_14
-8 -98 -8 1 1 LH_Vis_15
-14 -56 2 1 1 LH_Vis_16
-46 -74 6 1 1 LH_Vis_17
-4 -88 2 1 1 LH_Vis_18
-24 -96 6 1 1 LH_Vis_19
-14 -48 4 1 1 LH_Vis_20
-8 -74 10 1 1 LH_Vis_21
-18 -64 6 1 1 LH_Vis_22
-40 -84 14 1 1 LH_Vis_23
-10 -96 18 1 1 LH_Vis_24
-2 -84 24 1 1 LH_Vis_25
-12 -72 20 1 1 LH_Vis_26
-26 -84 22 1 1 LH_Vis_27
-32 -84 26 1 1 LH_Vis_28
-16 -88 34 1 1 LH_Vis_29
-12 -82 36 1 1 LH_Vis_30
-22 -78 44 1 1 LH_Vis_31
-50 -10 0 2 1 LH_SomMot_1
-56 -22 8 2 1 LH_SomMot_2
-36 -24 10 2 1 LH_SomMot_3
-38 -8 12 2 1 LH_SomMot_4
-36 -26 18 2 1 LH_SomMot_5
-58 -36 16 2 1 LH_SomMot_6
-40 -36 14 2 1 LH_SomMot_7
-48 -12 14 2 1 LH_SomMot_8
-60 -2 10 2 1 LH_SomMot_9
-48 -24 18 2 1 LH_SomMot_10
-62 -18 20 2 1 LH_SomMot_11
-60 -2 24 2 1 LH_SomMot_12
-62 -10 32 2 1 LH_SomMot_13
-54 -8 30 2 1 LH_SomMot_14
-54 -20 40 2 1 LH_SomMot_15
-52 -6 44 2 1 LH_SomMot_16
-48 -16 40 2 1 LH_SomMot_17
-8 -16 48 2 1 LH_SomMot_18
-40 -14 48 2 1 LH_SomMot_19
-48 -18 54 2 1 LH_SomMot_20
-48 -30 58 2 1 LH_SomMot_21
-38 -24 52 2 1 LH_SomMot_22
-8 -38 54 2 1 LH_SomMot_23
-4 -24 56 2 1 LH_SomMot_24
-4 -8 60 2 1 LH_SomMot_25
-36 -20 64 2 1 LH_SomMot_26
-30 -46 62 2 1 LH_SomMot_27
-32 -30 62 2 1 LH_SomMot_28
-30 -38 66 2 1 LH_SomMot_29
-24 -10 64 2 1 LH_SomMot_30
-20 -24 66 2 1 LH_SomMot_31
-8 -42 70 2 1 LH_SomMot_32
-4 -26 68 2 1 LH_SomMot_33
-14 -12 72 2 1 LH_SomMot_34
-18 -32 68 2 1 LH_SomMot_35
-18 -40 72 2 1 LH_SomMot_36
-12 -26 74 2 1 LH_SomMot_37
-44 -42 -22 3 1 LH_DorsAttn_Post_1
-48 -56 -16 3 1 LH_DorsAttn_Post_2
-56 -62 0 3 1 LH_DorsAttn_Post_3
-48 -66 16 3 1 LH_DorsAttn_Post_4
-26 -70 30 3 1 LH_DorsAttn_Post_5
-54 -32 44 3 1 LH_DorsAttn_Post_6
-22 -66 46 3 1 LH_DorsAttn_Post_7
-46 -30 44 3 1 LH_DorsAttn_Post_8
-34 -46 40 3 1 LH_DorsAttn_Post_9
-28 -58 50 3 1 LH_DorsAttn_Post_10
-38 -38 50 3 1 LH_DorsAttn_Post_11
-36 -52 56 3 1 LH_DorsAttn_Post_12
-14 -70 58 3 1 LH_DorsAttn_Post_13
-28 -62 62 3 1 LH_DorsAttn_Post_14
-8 -58 64 3 1 LH_DorsAttn_Post_15
-20 -56 66 3 1 LH_DorsAttn_Post_16
-14 -50 72 3 1 LH_DorsAttn_Post_17
-40 -2 52 3 1 LH_DorsAttn_FEF_1
-26 0 56 3 1 LH_DorsAttn_FEF_2
-30 -8 52 3 1 LH_DorsAttn_FEF_3
-22 6 64 3 1 LH_DorsAttn_FEF_4
-50 6 26 3 1 LH_DorsAttn_PrCv_1
-50 2 38 3 1 LH_DorsAttn_PrCv_2
-54 -32 22 4 1 LH_SalVentAttn_ParOper_1
-58 -44 28 4 1 LH_SalVentAttn_ParOper_2
-62 -24 32 4 1 LH_SalVentAttn_ParOper_3
-62 -36 34 4 1 LH_SalVentAttn_ParOper_4
-58 -54 10 4 1 LH_SalVentAttn_TempOcc_1
-44 6 -16 4 1 LH_SalVentAttn_FrOperIns_1
-38 2 -4 4 1 LH_SalVentAttn_FrOperIns_2
-32 24 0 4 1 LH_SalVentAttn_FrOperIns_3
-40 -14 -2 4 1 LH_SalVentAttn_FrOperIns_4
-32 18 8 4 1 LH_SalVentAttn_FrOperIns_5
-36 4 10 4 1 LH_SalVentAttn_FrOperIns_6
-44 12 2 4 1 LH_SalVentAttn_FrOperIns_7
-50 2 4 4 1 LH_SalVentAttn_FrOperIns_8
-52 8 14 4 1 LH_SalVentAttn_FrOperIns_9
-28 44 30 4 1 LH_SalVentAttn_PFCl_1
-6 22 32 4 1 LH_SalVentAttn_Med_1
-6 0 40 4 1 LH_SalVentAttn_Med_2
-12 -28 42 4 1 LH_SalVentAttn_Med_3
-6 10 48 4 1 LH_SalVentAttn_Med_4
-12 -42 48 4 1 LH_SalVentAttn_Med_5
-6 -48 56 4 1 LH_SalVentAttn_Med_6
-8 -2 70 4 1 LH_SalVentAttn_Med_7
-24 22 -20 5 1 LH_Limbic_OFC_2
-44 12 -34 5 1 LH_Limbic_TempPole_6
-32 12 -30 5 1 LH_Limbic_TempPole_7
-28 -74 42 6 1 LH_Cont_Par_1
-58 -42 46 6 1 LH_Cont_Par_2
-54 -50 44 6 1 LH_Cont_Par_3
-34 -62 48 6 1 LH_Cont_Par_4
-42 -52 48 6 1 LH_Cont_Par_5
-44 -42 46 6 1 LH_Cont_Par_6
-60 -48 -10 6 1 LH_Cont_Temp_1
-42 48 -6 6 1 LH_Cont_PFCl_1
-48 36 10 6 1 LH_Cont_PFCl_2
-38 50 10 6 1 LH_Cont_PFCl_3
-28 56 12 6 1 LH_Cont_PFCl_4
-42 38 22 6 1 LH_Cont_PFCl_5
-44 20 26 6 1 LH_Cont_PFCl_6
-40 8 34 6 1 LH_Cont_PFCl_7
-36 32 38 6 1 LH_Cont_PFCl_8
-34 16 -8 6 1 LH_Cont_PFCv_1
-10 -78 46 6 1 LH_Cont_pCun_1
-4 -64 52 6 1 LH_Cont_pCun_2
-4 6 28 6 1 LH_Cont_Cing_1
-4 -22 30 6 1 LH_Cont_Cing_2
-4 28 48 6 1 LH_Cont_PFCmp_1
-54 -2 -30 7 1 LH_Default_Temp_1
-56 -8 -14 7 1 LH_Default_Temp_4
-52 6 -12 7 1 LH_Default_Temp_5
-60 -34 -4 7 1 LH_Default_Temp_6
-52 -22 -6 7 1 LH_Default_Temp_7
-60 -12 -2 7 1 LH_Default_Temp_8
-62 -32 6 7 1 LH_Default_Temp_9
-52 -44 4 7 1 LH_Default_Temp_10
-58 -48 16 7 1 LH_Default_Par_1
-46 -58 20 7 1 LH_Default_Par_2
-40 -78 30 7 1 LH_Default_Par_3
-48 -64 32 7 1 LH_Default_Par_4
-56 -54 30 7 1 LH_Default_Par_5
-42 -72 44 7 1 LH_Default_Par_6
-48 -60 46 7 1 LH_Default_Par_7
-36 22 -16 7 1 LH_Default_PFC_1
-36 36 -12 7 1 LH_Default_PFC_2
-4 56 -10 7 1 LH_Default_PFC_3
-6 36 -8 7 1 LH_Default_PFC_4
-46 32 -10 7 1 LH_Default_PFC_5
-28 58 0 7 1 LH_Default_PFC_6
-48 28 0 7 1 LH_Default_PFC_7
-6 60 6 7 1 LH_Default_PFC_8
-6 44 6 7 1 LH_Default_PFC_9
-54 20 12 7 1 LH_Default_PFC_10
-16 68 8 7 1 LH_Default_PFC_11
-6 34 20 7 1 LH_Default_PFC_12
-4 52 28 7 1 LH_Default_PFC_13
-14 58 30 7 1 LH_Default_PFC_14
-22 50 32 7 1 LH_Default_PFC_15
-24 28 44 7 1 LH_Default_PFC_16
-40 20 48 7 1 LH_Default_PFC_17
-8 42 52 7 1 LH_Default_PFC_18
-18 36 48 7 1 LH_Default_PFC_19
-42 8 48 7 1 LH_Default_PFC_20
-30 14 58 7 1 LH_Default_PFC_21
-22 20 52 7 1 LH_Default_PFC_22
-12 24 60 7 1 LH_Default_PFC_23
-6 10 64 7 1 LH_Default_PFC_24
-8 -52 10 7 1 LH_Default_pCunPCC_1
-14 -60 18 7 1 LH_Default_pCunPCC_2
-4 -54 20 7 1 LH_Default_pCunPCC_3
-6 -40 24 7 1 LH_Default_pCunPCC_4
-10 -70 32 7 1 LH_Default_pCunPCC_5
-6 -60 30 7 1 LH_Default_pCunPCC_6
-8 -44 32 7 1 LH_Default_pCunPCC_7
-4 -34 38 7 1 LH_Default_pCunPCC_8
-2 -16 38 7 1 LH_Default_pCunPCC_9
-2 -68 42 7 1 LH_Default_pCunPCC_10
-6 -50 42 7 1 LH_Default_pCunPCC_11
-11 12 -6 8 1 LH_Subcortical_Caudate
-23 3 0 8 1 LH_Subcortical_Putamen
-19 0 1 8 1 LH_Subcortical_Pallidum
-11 -18 -6 8 1 LH_Subcortical_Thalamus
34 -36 -24 1 1 RH_Vis_1
30 -30 -18 1 1 RH_Vis_2
36 -54 -18 1 1 RH_Vis_3
38 -74 -16 1 1 RH_Vis_4
26 -52 -8 1 1 RH_Vis_5
24 -74 -10 1 1 RH_Vis_6
18 -36 -12 1 1 RH_Vis_7
20 -88 -12 1 1 RH_Vis_8
50 -64 -10 1 1 RH_Vis_9
42 -84 -12 1 1 RH_Vis_10
10 -72 -6 1 1 RH_Vis_11
14 -58 -4 1 1 RH_Vis_12
26 -96 -10 1 1 RH_Vis_13
18 -44 -2 1 1 RH_Vis_14
8 -92 -2 1 1 RH_Vis_15
48 -66 4 1 1 RH_Vis_16
14 -46 4 1 1 RH_Vis_17
36 -88 2 1 1 RH_Vis_18
10 -74 8 1 1 RH_Vis_19
22 -60 6 1 1 RH_Vis_20
24 -98 8 1 1 RH_Vis_21
44 -78 10 1 1 RH_Vis_22
12 -94 18 1 1 RH_Vis_23
16 -66 18 1 1 RH_Vis_24
4 -80 24 1 1 RH_Vis_25
28 -88 20 1 1 RH_Vis_26
36 -78 24 1 1 RH_Vis_27
14 -78 34 1 1 RH_Vis_28
16 -86 36 1 1 RH_Vis_29
30 -78 36 1 1 RH_Vis_30
52 4 -6 2 1 RH_SomMot_1
62 -18 0 2 1 RH_SomMot_2
54 -14 6 2 1 RH_SomMot_3
40 -20 4 2 1 RH_SomMot_4
38 -8 14 2 1 RH_SomMot_5
34 -22 14 2 1 RH_SomMot_6
60 -24 10 2 1 RH_SomMot_7
64 -34 10 2 1 RH_SomMot_8
42 -14 18 2 1 RH_SomMot_9
42 -30 18 2 1 RH_SomMot_10
50 -10 14 2 1 RH_SomMot_11
60 0 10 2 1 RH_SomMot_12
48 -22 18 2 1 RH_SomMot_13
62 -12 16 2 1 RH_SomMot_14
60 6 30 2 1 RH_SomMot_15
60 -6 26 2 1 RH_SomMot_16
62 -14 30 2 1 RH_SomMot_17
52 -6 38 2 1 RH_SomMot_18
54 -16 40 2 1 RH_SomMot_19
12 -18 42 2 1 RH_SomMot_20
52 -12 50 2 1 RH_SomMot_21
44 -10 48 2 1 RH_SomMot_22
50 -26 56 2 1 RH_SomMot_23
6 -10 52 2 1 RH_SomMot_24
44 -22 54 2 1 RH_SomMot_25
38 -20 64 2 1 RH_SomMot_26
32 -34 64 2 1 RH_SomMot_27
30 -40 64 2 1 RH_SomMot_28
34 -28 62 2 1 RH_SomMot_29
4 -24 58 2 1 RH_SomMot_30
28 -10 64 2 1 RH_SomMot_31
10 -40 68 2 1 RH_SomMot_32
22 -24 66 2 1 RH_SomMot_33
22 -28 68 2 1 RH_SomMot_34
22 -34 70 2 1 RH_SomMot_35
16 -6 70 2 1 RH_SomMot_36
16 -46 74 2 1 RH_SomMot_37
6 -22 72 2 1 RH_SomMot_38
16 -18 74 2 1 RH_SomMot_39
12 -32 76 2 1 RH_SomMot_40
50 -50 -18 3 1 RH_DorsAttn_Post_1
60 -54 -2 3 1 RH_DorsAttn_Post_2
54 -56 12 3 1 RH_DorsAttn_Post_3
46 -76 30 3 1 RH_DorsAttn_Post_4
32 -66 36 3 1 RH_DorsAttn_Post_5
58 -22 44 3 1 RH_DorsAttn_Post_6
18 -78 50 3 1 RH_DorsAttn_Post_7
44 -38 50 3 1 RH_DorsAttn_Post_8
46 -28 42 3 1 RH_DorsAttn_Post_9
30 -64 52 3 1 RH_DorsAttn_Post_10
36 -44 44 3 1 RH_DorsAttn_Post_11
20 -68 52 3 1 RH_DorsAttn_Post_12
36 -36 52 3 1 RH_DorsAttn_Post_13
34 -50 54 3 1 RH_DorsAttn_Post_14
8 -72 52 3 1 RH_DorsAttn_Post_15
26 -58 60 3 1 RH_DorsAttn_Post_16
8 -54 60 3 1 RH_DorsAttn_Post_17
14 -64 64 3 1 RH_DorsAttn_Post_18
24 -50 68 3 1 RH_DorsAttn_Post_19
40 -4 52 3 1 RH_DorsAttn_FEF_1
28 -4 52 3 1 RH_DorsAttn_FEF_2
24 -2 64 3 1 RH_DorsAttn_FEF_3
48 8 24 3 1 RH_DorsAttn_PrCv_1
60 -46 6 4 1 RH_SalVentAttn_TempOccPar_1
52 -40 12 4 1 RH_SalVentAttn_TempOccPar_2
62 -40 22 4 1 RH_SalVentAttn_TempOccPar_3
58 -32 24 4 1 RH_SalVentAttn_TempOccPar_4
60 -22 22 4 1 RH_SalVentAttn_TempOccPar_5
62 -26 38 4 1 RH_SalVentAttn_TempOccPar_6
62 -38 36 4 1 RH_SalVentAttn_TempOccPar_7
52 4 40 4 1 RH_SalVentAttn_PrC_1
40 6 -16 4 1 RH_SalVentAttn_FrOperIns_1
40 8 -2 4 1 RH_SalVentAttn_FrOperIns_2
40 -10 -4 4 1 RH_SalVentAttn_FrOperIns_3
40 -2 6 4 1 RH_SalVentAttn_FrOperIns_4
36 22 4 4 1 RH_SalVentAttn_FrOperIns_5
38 8 10 4 1 RH_SalVentAttn_FrOperIns_6
48 4 4 4 1 RH_SalVentAttn_FrOperIns_7
54 12 12 4 1 RH_SalVentAttn_FrOperIns_8
32 44 28 4 1 RH_SalVentAttn_PFCl_1
8 18 36 4 1 RH_SalVentAttn_Med_1
8 2 42 4 1 RH_SalVentAttn_Med_2
12 -34 42 4 1 RH_SalVentAttn_Med_3
6 10 58 4 1 RH_SalVentAttn_Med_4
10 -44 54 4 1 RH_SalVentAttn_Med_5
10 -32 50 4 1 RH_SalVentAttn_Med_6
6 -2 66 4 1 RH_SalVentAttn_Med_7
16 6 70 4 1 RH_SalVentAttn_Med_8
28 12 -30 5 1 RH_Limbic_TempPole_5
54 -52 44 6 1 RH_Cont_Par_1
56 -40 48 6 1 RH_Cont_Par_2
36 -70 46 6 1 RH_Cont_Par_3
54 -32 52 6 1 RH_Cont_Par_4
46 -44 46 6 1 RH_Cont_Par_5
42 -56 48 6 1 RH_Cont_Par_6
64 -42 -10 6 1 RH_Cont_Temp_2
34 22 -8 6 1 RH_Cont_PFCv_1
42 50 -6 6 1 RH_Cont_PFCl_2
28 60 2 6 1 RH_Cont_PFCl_3
50 40 6 6 1 RH_Cont_PFCl_4
42 46 14 6 1 RH_Cont_PFCl_5
50 30 18 6 1 RH_Cont_PFCl_6
48 18 24 6 1 RH_Cont_PFCl_7
26 54 24 6 1 RH_Cont_PFCl_8
48 28 28 6 1 RH_Cont_PFCl_9
38 10 34 6 1 RH_Cont_PFCl_10
38 34 38 6 1 RH_Cont_PFCl_11
44 18 44 6 1 RH_Cont_PFCl_12
42 6 50 6 1 RH_Cont_PFCl_13
34 16 56 6 1 RH_Cont_PFCl_14
24 10 58 6 1 RH_Cont_PFCl_15
14 -72 40 6 1 RH_Cont_pCun_1
6 -64 44 6 1 RH_Cont_pCun_2
6 -28 28 6 1 RH_Cont_Cing_1
4 2 30 6 1 RH_Cont_Cing_2
8 34 24 6 1 RH_Cont_PFCmp_1
4 28 48 6 1 RH_Cont_PFCmp_2
54 -46 20 7 1 RH_Default_Par_1
48 -64 22 7 1 RH_Default_Par_2
54 -54 26 7 1 RH_Default_Par_3
56 -46 32 7 1 RH_Default_Par_4
48 -64 42 7 1 RH_Default_Par_5
50 8 -32 7 1 RH_Default_Temp_1
48 16 -20 7 1 RH_Default_Temp_3
54 -4 -14 7 1 RH_Default_Temp_4
64 -24 -8 7 1 RH_Default_Temp_5
48 -20 -8 7 1 RH_Default_Temp_6
64 -38 0 7 1 RH_Default_Temp_7
50 -34 2 7 1 RH_Default_Temp_8
34 22 -18 7 1 RH_Default_PFCv_1
36 38 -14 7 1 RH_Default_PFCv_2
48 32 -8 7 1 RH_Default_PFCv_3
54 24 6 7 1 RH_Default_PFCv_4
6 42 -10 7 1 RH_Default_PFCdPFCm_1
10 66 0 7 1 RH_Default_PFCdPFCm_2
8 42 4 7 1 RH_Default_PFCdPFCm_3
8 54 12 7 1 RH_Default_PFCdPFCm_4
18 64 16 7 1 RH_Default_PFCdPFCm_5
6 26 18 7 1 RH_Default_PFCdPFCm_6
6 58 30 7 1 RH_Default_PFCdPFCm_7
16 52 36 7 1 RH_Default_PFCdPFCm_8
4 44 40 7 1 RH_Default_PFCdPFCm_9
26 34 38 7 1 RH_Default_PFCdPFCm_10
14 38 52 7 1 RH_Default_PFCdPFCm_11
24 26 50 7 1 RH_Default_PFCdPFCm_12
12 20 62 7 1 RH_Default_PFCdPFCm_13
12 -56 16 7 1 RH_Default_pCunPCC_1
8 -44 20 7 1 RH_Default_pCunPCC_2
16 -64 28 7 1 RH_Default_pCunPCC_3
6 -52 24 7 1 RH_Default_pCunPCC_4
4 -64 32 7 1 RH_Default_pCunPCC_5
6 -38 34 7 1 RH_Default_pCunPCC_6
4 -20 36 7 1 RH_Default_pCunPCC_7
10 -52 36 7 1 RH_Default_pCunPCC_8
8 -50 44 7 1 RH_Default_pCunPCC_9
14 13 -7 8 1 RH_Subcortical_Caudate
26 4 -1 8 1 RH_Subcortical_Putamen
22 0 0 8 1 RH_Subcortical_Pallidum
12 -18 -6 8 1 RH_Subcortical_Thalamus
